<?xml version="1.0" encoding="UTF-8" standalone="no"?>
<svg
   xmlns:dc="http://purl.org/dc/elements/1.1/"
   xmlns:cc="http://web.resource.org/cc/"
   xmlns:rdf="http://www.w3.org/1999/02/22-rdf-syntax-ns#"
   xmlns:svg="http://www.w3.org/2000/svg"
   xmlns="http://www.w3.org/2000/svg"
   xmlns:sodipodi="http://sodipodi.sourceforge.net/DTD/sodipodi-0.dtd"
   xmlns:inkscape="http://www.inkscape.org/namespaces/inkscape"
   version="1.1"
   width="900"
   height="600"
   viewBox="0,0 15,10"
   id="svg2"
   sodipodi:version="0.32"
   inkscape:version="0.45.1"
   sodipodi:docname="Fl_of_Žilina.svg"
   inkscape:output_extension="org.inkscape.output.svg.inkscape"
   sodipodi:docbase="C:\Documents and Settings\bojan\Desktop">
  <metadata
     id="metadata15">
    <rdf:RDF>
      <cc:Work
         rdf:about="">
        <dc:format>image/svg+xml</dc:format>
        <dc:type
           rdf:resource="http://purl.org/dc/dcmitype/StillImage" />
      </cc:Work>
    </rdf:RDF>
  </metadata>
  <defs
     id="defs13" />
  <sodipodi:namedview
     inkscape:window-height="712"
     inkscape:window-width="1024"
     inkscape:pageshadow="2"
     inkscape:pageopacity="0.0"
     guidetolerance="10.0"
     gridtolerance="10.0"
     objecttolerance="10.0"
     borderopacity="1.0"
     bordercolor="#666666"
     pagecolor="#ffffff"
     id="base"
     inkscape:zoom="0.62833333"
     inkscape:cx="450"
     inkscape:cy="300"
     inkscape:window-x="-4"
     inkscape:window-y="-4"
     inkscape:current-layer="svg2" />
  <title
     id="title4">flag of Å½ilina</title>
  <rect
     width="15"
     height="10"
     fill="white"
     id="rect6"
     style="fill:#00923f;fill-opacity:1" />
  <rect
     width="15"
     height="5"
     id="rect10"
     style="fill:#fff500;fill-opacity:1"
     x="0"
     y="4.9960036e-016" />
  <g
     id="layer1"
     transform="matrix(1.2898931e-2,0,0,1.2992778e-2,0.4155434,0.549946)">
    <g
       transform="translate(-7.956902e-2,-1.039279)"
       id="g3577">
      <path
         d="M 16.327126,6.864155 C 106.03047,6.9812594 194.11018,6.5438434 283.81351,6.6609173 C 285.06605,106.86393 243.97283,210.5535 154.18698,295.43775 C 55.53187,209.16775 15.618312,103.25477 16.327126,6.864155 z "
         style="fill:#00923f;fill-opacity:1;fill-rule:evenodd;stroke:none;stroke-width:1px;stroke-linecap:butt;stroke-linejoin:miter;stroke-opacity:1"
         id="path2117" />
      <path
         d="M 140.90635,355.18435 C 140.68934,355.18295 138.33363,346.24582 138.14305,346.14202 C 137.95677,346.04056 129.41756,349.05423 129.31269,348.86984 C 129.2054,348.6812 135.76733,342.17254 135.76193,341.95559 C 135.75665,341.74353 128.87714,335.8552 128.98439,335.67218 C 129.09411,335.48495 138.01174,337.91341 138.19693,337.80026 C 138.37794,337.68966 140.03763,328.78766 140.24975,328.78903 C 140.46676,328.79044 142.82247,337.72757 143.01305,337.83136 C 143.19933,337.93282 151.73853,334.91916 151.84341,335.10355 C 151.9507,335.29218 145.38877,341.80085 145.39417,342.0178 C 145.39944,342.22986 152.27895,348.11819 152.17171,348.30121 C 152.06199,348.48844 143.14435,346.05998 142.95917,346.17313 C 142.77816,346.28373 141.11847,355.18572 140.90635,355.18435 z "
         transform="matrix(1.821096,0,0,1.821096,-190.3519,-552.1017)"
         style="fill:#fff500;fill-opacity:1;stroke:none;stroke-width:0.2;stroke-miterlimit:4;stroke-dasharray:none;stroke-opacity:1"
         id="path2119" />
      <path
         d="M 140.90635,355.18435 C 140.68934,355.18295 138.33363,346.24582 138.14305,346.14202 C 137.95677,346.04056 129.41756,349.05423 129.31269,348.86984 C 129.2054,348.6812 135.76733,342.17254 135.76193,341.95559 C 135.75665,341.74353 128.87714,335.8552 128.98439,335.67218 C 129.09411,335.48495 138.01174,337.91341 138.19693,337.80026 C 138.37794,337.68966 140.03763,328.78766 140.24975,328.78903 C 140.46676,328.79044 142.82247,337.72757 143.01305,337.83136 C 143.19933,337.93282 151.73853,334.91916 151.84341,335.10355 C 151.9507,335.29218 145.38877,341.80085 145.39417,342.0178 C 145.39944,342.22986 152.27895,348.11819 152.17171,348.30121 C 152.06199,348.48844 143.14435,346.05998 142.95917,346.17313 C 142.77816,346.28373 141.11847,355.18572 140.90635,355.18435 z "
         transform="matrix(1.821096,0,0,1.821096,-21.68943,-552.1017)"
         style="fill:#fff500;fill-opacity:1;stroke:none;stroke-width:0.2;stroke-miterlimit:4;stroke-dasharray:none;stroke-opacity:1"
         id="path2121" />
      <path
         d="M 135.3873,18.096989 C 137.79135,20.742555 141.40235,26.143893 141.23063,29.922793 L 141.13788,47.035428 L 116.83702,47.035428 C 113.09933,46.894951 109.7259,43.88369 107.88651,42.305106 C 111.47835,50.95212 112.11542,60.911083 108.25751,70.223281 C 109.89751,69.03397 113.12437,66.46109 116.60514,66.652351 L 141.13788,66.652351 L 141.13788,117.712 L 87.249321,117.712 C 81.833128,117.46942 76.741609,113.7214 74.496002,111.72953 C 76.95099,115.72084 78.281327,120.24768 78.716191,124.94661 L 78.716191,129.81606 C 78.399203,134.44646 77.294112,139.17581 74.72788,143.8679 C 77.330647,141.83031 82.635361,137.47473 88.408713,137.51443 L 141.13788,137.74631 L 141.13788,206.64077 C 140.36641,212.7741 121.7112,217.0803 122.49485,226.3239 C 122.07695,238.79948 131.68816,239.31954 133.54298,250.53202 C 139.36599,239.5207 128.88182,233.55092 131.44537,226.55578 C 134.0089,219.56063 142.80739,224.14819 141.76719,228.78181 C 140.72697,233.41543 138.91596,242.56476 140.25675,248.63061 C 141.59754,254.69646 147.70648,255.90824 149.94927,260.92017 C 152.03232,256.32794 147.12692,251.23679 147.25948,247.79585 C 147.39203,244.3549 149.18349,240.93076 148.35029,234.48643 C 147.5171,228.04208 161.64193,224.01269 159.18805,236.31264 C 157.96113,242.46262 156.38117,245.17544 156.44009,250.142 C 156.49901,255.10856 158.52475,258.06479 155.76242,266.45098 C 159.97323,262.20438 163.82524,255.44876 164.64518,249.44079 C 165.46514,243.43281 166.1938,236.70102 165.96377,230.21554 C 165.73375,223.73006 173.92383,222.79255 175.79701,226.94784 C 176.73613,233.77357 169.68892,244.3453 173.21993,251.68942 C 174.61635,241.54654 185.13981,239.95688 184.7219,227.4813 C 182.59682,218.60129 160.92031,214.10727 160.75481,204.58041 L 160.75481,137.74631 L 213.48398,137.51443 C 219.25733,137.47473 224.56205,141.83031 227.16482,143.8679 C 224.59859,139.17581 223.4935,134.44646 223.17651,129.81606 L 223.17651,124.94661 C 223.61137,120.24768 224.9417,115.72084 227.3967,111.72953 C 225.15109,113.7214 220.05957,117.46942 214.64337,117.712 L 160.75481,117.712 L 160.75481,66.652351 L 185.28755,66.652351 C 188.76833,66.46109 191.99519,69.03397 193.63518,70.223281 C 189.77727,60.911083 190.41435,50.95212 194.00619,42.305106 C 192.16681,43.88369 188.79337,46.894951 185.05568,47.035428 L 160.75481,47.035428 L 160.66206,29.922793 C 160.49034,26.143893 164.10134,20.742555 166.5054,18.096989 C 163.91503,19.299032 160.21193,20.996353 156.48825,21.065033 L 153.89121,21.065033 L 148.00149,21.065033 L 145.40445,21.065033 C 141.68077,20.996353 137.97766,19.299032 135.3873,18.096989 z "
         style="fill:#fff500;fill-opacity:1;stroke:none;stroke-width:0.17713779;stroke-miterlimit:4;stroke-dasharray:none;stroke-opacity:1"
         id="path2123" />
    </g>
  </g>
</svg>
